<svg xmlns="http://www.w3.org/2000/svg" viewBox="0 0 95.5 95.5"><defs><style>.cls-1{fill:#ff8849;}.cls-1,.cls-2,.cls-3,.cls-4,.cls-5,.cls-6{stroke:#fff;stroke-miterlimit:10;stroke-width:3px;}.cls-2{fill:#b5366b;}.cls-3{fill:#1bc462;}.cls-4{fill:#fb4f53;}.cls-5{fill:#9e42f7;}.cls-6{fill:#2973f7;}</style></defs><title>Asset 1</title><g id="Layer_2" data-name="Layer 2"><g id="Layer_1-2" data-name="Layer 1"><circle class="cls-1" cx="48" cy="48" r="46"/><path class="cls-2" d="M47.5,47.5l1.26-46-1.26,0a46,46,0,1,0,46,46,46.83,46.83,0,0,0-.41-6.15Z"/><path class="cls-3" d="M47.5,47.5l1.26-46-1.26,0A46,46,0,1,0,64.35,90.3Z"/><path class="cls-4" d="M47.5,47.5l1.26-46-1.26,0a46,46,0,0,0-3,91.9Z"/><path class="cls-5" d="M47.5,47.5l1.26-46-1.26,0A46,46,0,0,0,13.87,78.89Z"/><path class="cls-6" d="M47.5,47.5l1.26-46-1.26,0a46.07,46.07,0,0,0-40.39,24Z"/></g></g></svg>