<svg width="122" height="22" viewBox="0 0 122 22" fill="none" xmlns="http://www.w3.org/2000/svg">
<path d="M2.10067 5.9878L0.802122 5.1947C0.70874 5.13757 0.631589 5.05671 0.578258 4.96006C0.524927 4.86342 0.497254 4.75432 0.497958 4.64351V0.678099C0.49373 0.590583 0.507042 0.503111 0.537086 0.420992C0.56713 0.338873 0.613279 0.263823 0.672729 0.200402C0.732179 0.13698 0.803688 0.0865127 0.882912 0.0520643C0.962136 0.017616 1.04742 -9.34301e-05 1.13358 1.2165e-05H2.43213C2.51593 -0.000510633 2.599 0.0158221 2.67657 0.0480707C2.75414 0.0803191 2.82467 0.127847 2.88411 0.187919C2.94354 0.247992 2.99071 0.319423 3.0229 0.398102C3.05508 0.476783 3.07165 0.561156 3.07165 0.646372V5.43659C3.07202 5.55198 3.04201 5.66537 2.98471 5.76498C2.92742 5.86465 2.84494 5.94684 2.74585 6.0031C2.64676 6.05931 2.53466 6.08758 2.42121 6.08492C2.30775 6.0822 2.19707 6.04868 2.10067 5.9878Z" fill="#102D28" fill-opacity="0.7"/>
<path d="M6.07989 8.33117L4.78291 7.53853C4.68887 7.48099 4.6111 7.3996 4.55717 7.30238C4.50325 7.20516 4.47501 7.0953 4.47522 6.98365V1.35188C4.47522 1.17949 4.54252 1.01417 4.66231 0.892274C4.7821 0.770384 4.94457 0.701904 5.11397 0.701904H6.41097C6.58005 0.70294 6.74194 0.771756 6.86147 0.893424C6.98105 1.01509 7.04867 1.17981 7.04968 1.35188V7.7763C7.04952 7.89152 7.01931 8.00458 6.96208 8.10392C6.90484 8.20331 6.82267 8.28541 6.72398 8.34186C6.62535 8.3983 6.51371 8.4271 6.40053 8.4252C6.28734 8.4233 6.17672 8.39087 6.07989 8.33117Z" fill="#102D28" fill-opacity="0.7"/>
<path d="M10.1593 10.2979H9.20695C9.07819 10.2988 8.95235 10.259 8.84695 10.1841L8.49467 9.94487C8.41046 9.88611 8.34149 9.80765 8.29367 9.71616C8.24579 9.62467 8.22047 9.52282 8.21978 9.41925V3.92828C8.21867 3.84079 8.23514 3.75398 8.2683 3.67318C8.3014 3.59237 8.35045 3.51926 8.41242 3.45831C8.47439 3.39737 8.54795 3.34987 8.62867 3.31873C8.70934 3.28759 8.79552 3.27346 8.8818 3.2772H10.1593C10.2428 3.27668 10.3256 3.29296 10.4029 3.3251C10.4801 3.35724 10.5503 3.4046 10.6094 3.46444C10.6684 3.52427 10.7152 3.59539 10.7469 3.67366C10.7786 3.75194 10.7947 3.83582 10.7942 3.92043V9.6742C10.7891 9.84141 10.72 9.99998 10.6015 10.1164C10.483 10.2328 10.3244 10.2979 10.1593 10.2979Z" fill="#102D28" fill-opacity="0.7"/>
<path d="M13.9107 0.701904H13.0603C12.5842 0.701904 12.1982 1.09652 12.1982 1.58331V9.41621C12.1982 9.903 12.5842 10.2976 13.0603 10.2976H13.9107C14.3867 10.2976 14.7727 9.903 14.7727 9.41621V1.58331C14.7727 1.09652 14.3867 0.701904 13.9107 0.701904Z" fill="#102D28" fill-opacity="0.7"/>
<path d="M17.8113 4.68066H16.8837C16.3643 4.68066 15.9432 5.06555 15.9432 5.54032V9.438C15.9432 9.91278 16.3643 10.2977 16.8837 10.2977H17.8113C18.3307 10.2977 18.7517 9.91278 18.7517 9.438V5.54032C18.7517 5.06555 18.3307 4.68066 17.8113 4.68066Z" fill="#102D28" fill-opacity="0.7"/>
<path d="M21.6343 1.63843H20.7839C20.3078 1.63843 19.9219 2.03219 19.9219 2.51792V9.41854C19.9219 9.90427 20.3078 10.298 20.7839 10.298H21.6343C22.1104 10.298 22.4963 9.90427 22.4963 9.41854V2.51792C22.4963 2.03219 22.1104 1.63843 21.6343 1.63843Z" fill="#102D28" fill-opacity="0.7"/>
<path d="M2.43121 21.9998H1.13227C0.963645 21.9998 0.801924 21.9329 0.682685 21.8139C0.563447 21.6949 0.49646 21.5335 0.49646 21.3653V18.9049C0.497264 18.7921 0.528009 18.6815 0.585565 18.5844C0.643122 18.4873 0.725433 18.4071 0.824118 18.3521L2.12305 17.6319C2.22025 17.5786 2.32967 17.5514 2.44058 17.553C2.55149 17.5546 2.66007 17.5851 2.75566 17.6412C2.85125 17.6973 2.93058 17.7773 2.98585 17.8733C3.04111 17.9692 3.07044 18.0779 3.07092 18.1886V21.3653C3.07092 21.4489 3.05434 21.5318 3.02215 21.609C2.98996 21.6862 2.94277 21.7564 2.88332 21.8153C2.82386 21.8743 2.75331 21.9209 2.67572 21.9526C2.59813 21.9843 2.51503 22.0003 2.43121 21.9998Z" fill="#102D28" fill-opacity="0.7"/>
<path d="M6.41097 21.9998H5.11397C5.03027 22.0003 4.9473 21.9843 4.86983 21.9525C4.79235 21.9208 4.72191 21.874 4.66254 21.8149C4.60317 21.7558 4.55606 21.6855 4.52391 21.608C4.49177 21.5306 4.47522 21.4476 4.47522 21.3637V16.6337C4.47588 16.523 4.50486 16.4142 4.55941 16.3179C4.61397 16.2216 4.69226 16.1408 4.78681 16.0835L6.08378 15.303C6.1805 15.2452 6.29075 15.214 6.40335 15.2127C6.51595 15.2114 6.62689 15.2398 6.72494 15.2953C6.82305 15.3508 6.90474 15.4312 6.96176 15.5285C7.01877 15.6258 7.04909 15.7365 7.04968 15.8493V21.3637C7.04867 21.5328 6.98094 21.6945 6.86125 21.8138C6.74157 21.9329 6.57968 21.9998 6.41097 21.9998Z" fill="#102D28" fill-opacity="0.7"/>
<path d="M10.1525 22H8.86139C8.69191 22 8.52929 21.9333 8.40906 21.8145C8.28883 21.6956 8.2208 21.5344 8.21973 21.3659V14.5547C8.22064 14.4411 8.2519 14.3296 8.31035 14.2319C8.36881 14.1341 8.45226 14.0536 8.55231 13.9985L9.17437 13.6523C9.27083 13.6015 9.37827 13.5748 9.48741 13.5745H10.1525C10.2369 13.5739 10.3206 13.5901 10.3986 13.622C10.4767 13.6539 10.5477 13.7008 10.6074 13.7602C10.667 13.8195 10.7143 13.8901 10.7464 13.9677C10.7784 14.0453 10.7947 14.1285 10.7942 14.2124V21.3659C10.7942 21.4495 10.7775 21.5323 10.7453 21.6094C10.713 21.6866 10.6656 21.7567 10.606 21.8156C10.5463 21.8745 10.4756 21.9211 10.3978 21.9528C10.32 21.9844 10.2366 22.0004 10.1525 22Z" fill="#102D28" fill-opacity="0.7"/>
<path d="M13.9107 13.5745H13.0603C12.5842 13.5745 12.1982 13.9592 12.1982 14.4337V21.1407C12.1982 21.6153 12.5842 22 13.0603 22H13.9107C14.3867 22 14.7727 21.6153 14.7727 21.1407V14.4337C14.7727 13.9592 14.3867 13.5745 13.9107 13.5745Z" fill="#102D28" fill-opacity="0.7"/>
<path d="M17.8113 13.5745H16.8837C16.3643 13.5745 15.9432 13.9592 15.9432 14.4337V21.1407C15.9432 21.6153 16.3643 22 16.8837 22H17.8113C18.3307 22 18.7517 21.6153 18.7517 21.1407V14.4337C18.7517 13.9592 18.3307 13.5745 17.8113 13.5745Z" fill="#102D28" fill-opacity="0.7"/>
<path d="M21.6343 13.5745H20.7839C20.3078 13.5745 19.9219 13.9592 19.9219 14.4337V21.1407C19.9219 21.6153 20.3078 22 20.7839 22H21.6343C22.1104 22 22.4963 21.6153 22.4963 21.1407V14.4337C22.4963 13.9592 22.1104 13.5745 21.6343 13.5745Z" fill="#102D28" fill-opacity="0.7"/>
<path d="M0.49649 9.29581V14.5712C0.495392 14.6831 0.524707 14.7933 0.581471 14.8906C0.638236 14.988 0.720439 15.069 0.81977 15.1256C0.919103 15.1822 1.03204 15.2122 1.14717 15.2128C1.26231 15.2134 1.37555 15.1844 1.47546 15.1288L6.01322 12.6139C6.11264 12.5593 6.19569 12.4805 6.25426 12.3853C6.31283 12.2901 6.34494 12.1817 6.34736 12.0708C6.34977 11.9599 6.32249 11.8503 6.26809 11.7527C6.21375 11.6552 6.13421 11.573 6.03732 11.5144L1.49953 8.75777C1.40056 8.69707 1.28663 8.6633 1.16965 8.65994C1.05266 8.65663 0.936892 8.68384 0.834427 8.73883C0.731962 8.79378 0.646554 8.87444 0.587113 8.97243C0.527671 9.07043 0.496375 9.18208 0.49649 9.29581Z" fill="#102D28" fill-opacity="0.7"/>
<path d="M44.2628 7.72363L41.8114 17.5534H39.3459L37.4756 10.4247L35.591 17.5534H33.1397L30.6884 7.72363H32.8563L34.3866 15.3396L36.3703 7.72363H38.5666L40.5645 15.3396L42.0948 7.72363H44.2628Z" fill="#102D28" fill-opacity="0.7"/>
<path d="M48.5835 9.59595C49.2282 9.59595 49.7809 9.75005 50.2413 10.0583C50.7018 10.3665 51.0288 10.7821 51.2222 11.3051V9.69401H53.1563V17.4553H51.2222V15.8302C51.0288 16.3532 50.7018 16.7735 50.2413 17.0911C49.7809 17.3993 49.2282 17.5534 48.5835 17.5534C47.9388 17.5534 47.3586 17.3946 46.8428 17.077C46.3271 16.7595 45.9219 16.3019 45.6271 15.7041C45.3416 15.0971 45.1989 14.3872 45.1989 13.5747C45.1989 12.7621 45.3416 12.057 45.6271 11.4592C45.9219 10.8522 46.3271 10.3899 46.8428 10.0723C47.3586 9.75474 47.9388 9.59595 48.5835 9.59595ZM49.1914 11.3191C48.5835 11.3191 48.0954 11.5199 47.727 11.9215C47.3586 12.3232 47.1744 12.8742 47.1744 13.5747C47.1744 14.2751 47.3586 14.8262 47.727 15.2278C48.0954 15.6201 48.5835 15.8162 49.1914 15.8162C49.7808 15.8162 50.2643 15.6154 50.642 15.2138C51.0288 14.8029 51.2222 14.2565 51.2222 13.5747C51.2222 12.8836 51.0288 12.3372 50.642 11.9355C50.2643 11.5246 49.7808 11.3191 49.1914 11.3191Z" fill="#102D28" fill-opacity="0.7"/>
<path d="M56.6751 15.9084H60.4111V17.5535H54.5601V15.9921L58.0624 11.4612H54.6425V9.83008H60.2738V11.3775L56.6751 15.9084Z" fill="#102D28" fill-opacity="0.7"/>
<path d="M61.3475 7.62562C61.3475 7.31002 61.4659 7.05473 61.7026 6.85979C61.9394 6.65559 62.2501 6.55347 62.6348 6.55347C63.0195 6.55347 63.3302 6.65559 63.5669 6.85979C63.8036 7.05473 63.922 7.31002 63.922 7.62562C63.922 7.93194 63.8036 8.18723 63.5669 8.39144C63.3302 8.58637 63.0195 8.68384 62.6348 8.68384C62.2501 8.68384 61.9394 8.58637 61.7026 8.39144C61.4659 8.18723 61.3475 7.93194 61.3475 7.62562ZM63.6705 9.83953V17.5534H61.5843V9.83953H63.6705Z" fill="#102D28" fill-opacity="0.7"/>
<path d="M75.3925 9.59595C76.3317 9.59595 77.0708 9.89329 77.6099 10.488C78.1586 11.0732 78.4327 11.9086 78.4327 12.9941V17.5534H76.4803V13.2207C76.4803 12.6166 76.3269 12.1541 76.02 11.8331C75.7229 11.5027 75.3088 11.3375 74.7788 11.3375C74.2306 11.3375 73.7935 11.5122 73.4679 11.8614C73.1428 12.2107 72.9798 12.7204 72.9798 13.3906V17.5534H71.0273V13.2207C71.0273 12.6166 70.8739 12.1541 70.5671 11.8331C70.2699 11.5027 69.8558 11.3375 69.3259 11.3375C68.7777 11.3375 68.3405 11.5122 68.0149 11.8614C67.6899 12.2107 67.5268 12.7204 67.5268 13.3906V17.5534H65.5604V9.70922H67.5268V11.1959C67.7317 10.6862 68.0525 10.2945 68.4891 10.0207C68.9354 9.73754 69.4514 9.59595 70.0371 9.59595C70.6604 9.59595 71.1995 9.74701 71.6549 10.049C72.1199 10.3511 72.4686 10.7853 72.7009 11.3517C72.9428 10.8136 73.3005 10.3889 73.7747 10.0774C74.2585 9.75644 74.7976 9.59595 75.3925 9.59595Z" fill="#102D28" fill-opacity="0.7"/>
<path d="M83.2211 9.59595C83.8656 9.59595 84.4182 9.75005 84.8789 10.0583C85.3396 10.3665 85.6663 10.7821 85.8598 11.3051V9.69401H87.7939V17.4553H85.8598V15.8302C85.6663 16.3532 85.3396 16.7735 84.8789 17.0911C84.4182 17.3993 83.8656 17.5534 83.2211 17.5534C82.5766 17.5534 81.9963 17.3946 81.4804 17.077C80.9645 16.7595 80.5596 16.3019 80.2647 15.7041C79.9794 15.0971 79.8364 14.3872 79.8364 13.5747C79.8364 12.7621 79.9794 12.057 80.2647 11.4592C80.5596 10.8522 80.9645 10.3899 81.4804 10.0723C81.9963 9.75474 82.5766 9.59595 83.2211 9.59595ZM83.8289 11.3191C83.2211 11.3191 82.7328 11.5199 82.3646 11.9215C81.9963 12.3232 81.812 12.8742 81.812 13.5747C81.812 14.2751 81.9963 14.8262 82.3646 15.2278C82.7328 15.6201 83.2211 15.8162 83.8289 15.8162C84.4182 15.8162 84.9017 15.6154 85.2795 15.2138C85.6663 14.8029 85.8598 14.2565 85.8598 13.5747C85.8598 12.8836 85.6663 12.3372 85.2795 11.9355C84.9017 11.5246 84.4182 11.3191 83.8289 11.3191Z" fill="#102D28" fill-opacity="0.7"/>
<path d="M94.3737 9.59595C95.0378 9.59595 95.6351 9.75672 96.1656 10.0782C96.6967 10.3998 97.1092 10.8678 97.4029 11.4825C97.7065 12.0877 97.858 12.8016 97.858 13.6243C97.858 14.447 97.7065 15.1657 97.4029 15.7803C97.1092 16.3856 96.6967 16.8489 96.1656 17.1704C95.6351 17.4919 95.0378 17.6527 94.3737 17.6527C93.7103 17.6527 93.1414 17.4966 92.6672 17.1846C92.2028 16.8631 91.8708 16.4376 91.6717 15.908V21.298H89.6665V9.69524H91.6717V11.3264C91.8708 10.7969 92.2028 10.3761 92.6672 10.064C93.1414 9.75198 93.7103 9.59595 94.3737 9.59595ZM93.748 11.3406C93.1414 11.3406 92.6388 11.5487 92.2406 11.9647C91.8522 12.3714 91.6575 12.9246 91.6575 13.6243C91.6575 14.3146 91.8522 14.8678 92.2406 15.2839C92.6388 15.6905 93.1414 15.8938 93.748 15.8938C94.3737 15.8938 94.8764 15.6952 95.2555 15.2981C95.6351 14.8915 95.8243 14.3335 95.8243 13.6243C95.8243 12.9151 95.6351 12.3572 95.2555 11.9506C94.8764 11.544 94.3737 11.3406 93.748 11.3406Z" fill="#102D28" fill-opacity="0.7"/>
<path d="M110.73 17.5534H108.744L104.291 10.8703V17.5534H102.305V7.72363H104.291L108.744 14.4624V7.72363H110.73V17.5534Z" fill="#102D28" fill-opacity="0.7"/>
<path d="M117.031 7.48975C118.237 7.48975 119.238 7.78837 120.033 8.38555C120.828 8.97342 121.338 9.77125 121.562 10.779H119.486C119.289 10.3311 118.976 9.97657 118.546 9.71526C118.125 9.44469 117.625 9.30935 117.045 9.30935C116.474 9.30935 115.969 9.44 115.53 9.70126C115.09 9.96257 114.749 10.3358 114.506 10.821C114.262 11.3063 114.141 11.8755 114.141 12.5286C114.141 13.5644 114.416 14.3716 114.968 14.9501C115.53 15.5287 116.292 15.8179 117.255 15.8179C117.966 15.8179 118.574 15.608 119.079 15.1881C119.593 14.7682 119.925 14.185 120.075 13.4384H116.722V12.0248H121.73V13.9283C121.59 14.5816 121.314 15.1834 120.903 15.7339C120.501 16.2845 119.968 16.7277 119.303 17.0637C118.649 17.3903 117.896 17.5535 117.045 17.5535C116.072 17.5535 115.212 17.3436 114.463 16.9237C113.725 16.4945 113.15 15.9019 112.738 15.1461C112.336 14.3809 112.135 13.5084 112.135 12.5286C112.135 11.5489 112.336 10.681 112.738 9.92521C113.15 9.16006 113.725 8.56288 114.463 8.13361C115.202 7.70438 116.058 7.48975 117.031 7.48975Z" fill="#102D28" fill-opacity="0.7"/>
</svg>
